<svg width="1440" height="1021" viewBox="0 0 1440 1021" fill="none" xmlns="http://www.w3.org/2000/svg">
    <g opacity="0.148">
        <path opacity="0.999" d="M1673.38 -0.252131L-59.0659 -0.252136" stroke="#181818" stroke-opacity="0.9" stroke-width="1.5"/>
        <path opacity="0.999" d="M1673.38 392.345L-59.0625 392.345" stroke="#181818" stroke-opacity="0.9" stroke-width="1.5"/>
        <path opacity="0.999" d="M1673.39 784.943L-59.0601 784.943" stroke="#181818" stroke-opacity="0.9" stroke-width="1.5"/>
        <path opacity="0.999" d="M1673.38 196.047L-59.0645 196.047" stroke="#181818" stroke-opacity="0.9" stroke-width="1.5"/>
        <path opacity="0.999" d="M1673.39 588.644L-59.062 588.644" stroke="#181818" stroke-opacity="0.9" stroke-width="1.5"/>
        <path opacity="0.999" d="M1673.38 97.897L-59.0654 97.897" stroke="#181818" stroke-opacity="0.9" stroke-width="1.5"/>
        <path opacity="0.999" d="M1673.39 490.494L-59.062 490.494" stroke="#181818" stroke-opacity="0.9" stroke-width="1.5"/>
        <path opacity="0.999" d="M1673.39 883.093L-59.0596 883.093" stroke="#181818" stroke-opacity="0.9" stroke-width="1.5"/>
        <path opacity="0.999" d="M1673.38 294.196L-59.064 294.196" stroke="#181818" stroke-opacity="0.9" stroke-width="1.5"/>
        <path opacity="0.999" d="M1673.39 686.793L-59.0615 686.793" stroke="#181818" stroke-opacity="0.9" stroke-width="1.5"/>
        <path opacity="0.999" d="M716.723 -40.0027L716.73 1020.99" stroke="#181818" stroke-opacity="0.9" stroke-width="1.5"/>
        <path opacity="0.999" d="M355.891 -40.0029L355.898 1020.99" stroke="#181818" stroke-opacity="0.9" stroke-width="1.5"/>
        <path opacity="0.999" d="M1077.56 -40.003L1077.56 1020.99" stroke="#181818" stroke-opacity="0.9" stroke-width="1.5"/>
        <path opacity="0.999" d="M1438.1 -40.0059L1438.11 1020.99" stroke="#181818" stroke-opacity="0.9" stroke-width="1.5"/>
        <path opacity="0.999" d="M175.476 -40.0029L175.483 1020.99" stroke="#181818" stroke-opacity="0.9" stroke-width="1.5"/>
        <path opacity="0.999" d="M897.139 -40.0029L897.146 1020.99" stroke="#181818" stroke-opacity="0.9" stroke-width="1.5"/>
        <path opacity="0.999" d="M1257.68 -40.0058L1257.69 1020.99" stroke="#181818" stroke-opacity="0.9" stroke-width="1.5"/>
        <path opacity="0.999" d="M536.308 -40.0029L536.315 1020.99" stroke="#181818" stroke-opacity="0.9" stroke-width="1.5"/>
        <path opacity="0.999" d="M85.2681 -40.0029L85.2754 1020.99" stroke="#181818" stroke-opacity="0.9" stroke-width="1.5"/>
        <path opacity="0.999" d="M806.931 -40.0028L806.938 1020.99" stroke="#181818" stroke-opacity="0.9" stroke-width="1.5"/>
        <path opacity="0.999" d="M446.1 -40.0029L446.107 1020.99" stroke="#181818" stroke-opacity="0.9" stroke-width="1.5"/>
        <path opacity="0.999" d="M1167.76 -40.0029L1167.77 1020.99" stroke="#181818" stroke-opacity="0.9" stroke-width="1.5"/>
        <path opacity="0.999" d="M265.684 -40.0029L265.691 1020.99" stroke="#181818" stroke-opacity="0.9" stroke-width="1.5"/>
        <path opacity="0.999" d="M987.348 -40.0029L987.355 1020.99" stroke="#181818" stroke-opacity="0.9" stroke-width="1.5"/>
        <path opacity="0.999" d="M1347.89 -40.0058L1347.9 1020.99" stroke="#181818" stroke-opacity="0.9" stroke-width="1.5"/>
        <path opacity="0.999" d="M626.515 -40.0028L626.522 1020.99" stroke="#181818" stroke-opacity="0.9" stroke-width="1.5"/>
        <path opacity="0.999" d="M1673.39 981.243L-59.0586 981.243" stroke="#181818" stroke-opacity="0.9" stroke-width="1.5"/>
    </g>
</svg>
